<?xml version="1.0" encoding="UTF-8"?>
<svg version="1.1" xmlns="http://www.w3.org/2000/svg" width="128" height="128">
<path d="M0 0 C1.37140892 -0.00934319 1.37140892 -0.00934319 2.77052307 -0.01887512 C3.75495895 -0.00966537 4.73939484 -0.00045563 5.75366211 0.0090332 C6.76569199 0.0085347 7.77772186 0.00803619 8.82041931 0.00752258 C10.9597266 0.00986333 13.09903663 0.01959185 15.23828125 0.03613281 C18.52165201 0.05974718 21.80421228 0.05669097 25.08764648 0.05004883 C27.16382322 0.0556247 29.23999653 0.06273401 31.31616211 0.0715332 C32.30262222 0.0706218 33.28908234 0.06971039 34.30543518 0.06877136 C35.21655563 0.07830338 36.12767609 0.08783539 37.06640625 0.09765625 C37.87010147 0.10226364 38.67379669 0.10687103 39.50184631 0.11161804 C41.46850586 0.37231445 41.46850586 0.37231445 43.46850586 2.37231445 C44.28100586 4.68481445 44.28100586 4.68481445 44.46850586 7.37231445 C43.32691396 9.65549825 42.27837903 11.56244128 40.46850586 13.37231445 C38.81850586 13.37231445 37.16850586 13.37231445 35.46850586 13.37231445 C35.79850586 24.92231445 36.12850586 36.47231445 36.46850586 48.37231445 C41.08850586 50.68231445 45.70850586 52.99231445 50.46850586 55.37231445 C61.67299092 63.49150652 68.71199338 75.36488961 72.04663086 88.6809082 C74.28470073 102.95896503 71.88837898 115.53256821 65.46850586 128.37231445 C34.44850586 128.37231445 3.42850586 128.37231445 -28.53149414 128.37231445 C-35.83181713 112.31160388 -38.38953463 97.63515212 -32.86743164 80.59887695 C-30.71201758 75.39311082 -27.85758499 70.90097361 -24.53149414 66.37231445 C-23.78899414 65.32043945 -23.04649414 64.26856445 -22.28149414 63.18481445 C-15.52541307 56.27518608 -8.37663833 52.30348965 0.46850586 48.37231445 C0.79850586 36.82231445 1.12850586 25.27231445 1.46850586 13.37231445 C-0.84149414 13.04231445 -3.15149414 12.71231445 -5.53149414 12.37231445 C-7.84432001 8.90307565 -7.95628 7.4502587 -7.53149414 3.37231445 C-5.3023824 0.37165377 -3.6566845 -0.00286095 0 0 Z " fill="#B8EA7D" transform="translate(45.531494140625,-0.372314453125)"/>
<path d="M0 0 C1.37140892 -0.00934319 1.37140892 -0.00934319 2.77052307 -0.01887512 C3.75495895 -0.00966537 4.73939484 -0.00045563 5.75366211 0.0090332 C6.76569199 0.0085347 7.77772186 0.00803619 8.82041931 0.00752258 C10.9597266 0.00986333 13.09903663 0.01959185 15.23828125 0.03613281 C18.52165201 0.05974718 21.80421228 0.05669097 25.08764648 0.05004883 C27.16382322 0.0556247 29.23999653 0.06273401 31.31616211 0.0715332 C32.79585228 0.07016609 32.79585228 0.07016609 34.30543518 0.06877136 C35.21655563 0.07830338 36.12767609 0.08783539 37.06640625 0.09765625 C37.87010147 0.10226364 38.67379669 0.10687103 39.50184631 0.11161804 C41.46850586 0.37231445 41.46850586 0.37231445 43.46850586 2.37231445 C44.28100586 4.68481445 44.28100586 4.68481445 44.46850586 7.37231445 C43.32691396 9.65549825 42.27837903 11.56244128 40.46850586 13.37231445 C38.81850586 13.37231445 37.16850586 13.37231445 35.46850586 13.37231445 C35.79850586 24.92231445 36.12850586 36.47231445 36.46850586 48.37231445 C41.08850586 50.68231445 45.70850586 52.99231445 50.46850586 55.37231445 C55.95187234 59.57873258 59.7097281 63.61668601 63.46850586 69.37231445 C60.76586918 70.72363279 59.39464357 69.99874336 56.46850586 69.37231445 C43.53014598 68.21166746 33.44908176 72.05082013 22.40600586 78.37231445 C9.07231024 85.99236078 -3.81767044 90.3647116 -19.10961914 86.2434082 C-22.97102359 85.09314003 -26.75619718 83.77801013 -30.53149414 82.37231445 C-31.56708121 79.15501305 -31.73270635 77.80160882 -30.27368164 74.6887207 C-28.3821641 71.89893018 -26.48834939 69.11678364 -24.53149414 66.37231445 C-23.78899414 65.32043945 -23.04649414 64.26856445 -22.28149414 63.18481445 C-15.52541307 56.27518608 -8.37663833 52.30348965 0.46850586 48.37231445 C0.79850586 36.82231445 1.12850586 25.27231445 1.46850586 13.37231445 C-0.84149414 13.04231445 -3.15149414 12.71231445 -5.53149414 12.37231445 C-7.84432001 8.90307565 -7.95628 7.4502587 -7.53149414 3.37231445 C-5.3023824 0.37165377 -3.6566845 -0.00286095 0 0 Z " fill="#E0F4FA" transform="translate(45.531494140625,-0.372314453125)"/>
<path d="M0 0 C1.40668945 0.01450195 1.40668945 0.01450195 2.84179688 0.02929688 C3.81826172 0.05443359 4.79472656 0.07957031 5.80078125 0.10546875 C6.78884766 0.11900391 7.77691406 0.13253906 8.79492188 0.14648438 C11.23492356 0.18184672 13.67382844 0.23119842 16.11328125 0.29296875 C16.34180554 7.3032349 16.49921533 14.31253916 16.60766602 21.32568359 C16.65287941 23.71016325 16.71426396 26.09439403 16.79223633 28.47802734 C16.90164903 31.90915256 16.95249673 35.33697787 16.9921875 38.76953125 C17.03863907 39.8322525 17.08509064 40.89497375 17.13294983 41.98989868 C17.13789349 49.26660206 17.13789349 49.26660206 14.17062378 52.23895264 C11.87849059 53.76346236 9.55059196 55.01924453 7.11328125 56.29296875 C5.94023534 57.21779311 4.7903722 58.17347198 3.67578125 59.16796875 C1.11328125 61.29296875 1.11328125 61.29296875 -0.88671875 61.29296875 C-1.14839844 61.85886719 -1.41007812 62.42476562 -1.6796875 63.0078125 C-2.98899444 65.48659748 -4.52776117 67.60585732 -6.19921875 69.85546875 C-9.88651906 75.03157441 -12.46931143 80.43326252 -14.88671875 86.29296875 C-21.04239951 85.36194942 -26.49517618 84.49875082 -31.88671875 81.29296875 C-31.38546062 76.70144424 -30.31509938 73.93388562 -27.57421875 70.23046875 C-26.97996094 69.41449219 -26.38570312 68.59851563 -25.7734375 67.7578125 C-24.83951172 66.53771484 -24.83951172 66.53771484 -23.88671875 65.29296875 C-22.943125 64.02839844 -22.943125 64.02839844 -21.98046875 62.73828125 C-19.74643079 60.12912498 -17.47653484 58.24632732 -14.69921875 56.23046875 C-13.81878906 55.57949219 -12.93835938 54.92851563 -12.03125 54.2578125 C-8.20642613 51.8678915 -4.00810001 50.12469376 0.11328125 48.29296875 C0.44328125 36.74296875 0.77328125 25.19296875 1.11328125 13.29296875 C-1.19671875 12.96296875 -3.50671875 12.63296875 -5.88671875 12.29296875 C-8.19954462 8.82372994 -8.31150461 7.370913 -7.88671875 3.29296875 C-5.59119046 0.13702125 -3.79278423 -0.06895971 0 0 Z " fill="#CCEFF9" transform="translate(45.88671875,-0.29296875)"/>
<path d="M0 0 C0.64066406 0.26554687 1.28132812 0.53109375 1.94140625 0.8046875 C2.80636719 1.15789062 3.67132813 1.51109375 4.5625 1.875 C5.40941406 2.22304687 6.25632812 2.57109375 7.12890625 2.9296875 C10.38634807 4.14402636 13.64815025 5.08020934 17 6 C16.97679688 7.25554687 16.95359375 8.51109375 16.9296875 9.8046875 C16.73902498 24.14881663 18.57733619 34.58604214 24 48 C17.4 48 10.8 48 4 48 C-3.20430042 33.0226386 -5.8474526 17.98303518 -0.65625 1.80859375 C-0.4396875 1.21175781 -0.223125 0.61492187 0 0 Z " fill="#99DB7E" transform="translate(13,80)"/>
<path d="M0 0 C0.5015327 6.77069142 -0.72094926 12.01493652 -4 18 C-7.89126638 21.89126638 -11.87934426 24.28360144 -17.4375 24.3125 C-21.3830771 24.24088061 -23.8176099 23.46378589 -27 21 C-26.67 23.64 -26.34 26.28 -26 29 C-27.32 29 -28.64 29 -30 29 C-31.77084117 26.29165469 -32.01052504 25.10735541 -31.6875 21.8125 C-31 19 -31 19 -30 18 C-29.73167449 16.39879667 -29.48519818 14.79390359 -29.25 13.1875 C-28.58815371 9.91555567 -28.18389957 8.23906944 -26.125 5.5625 C-21.29754475 3.14877238 -16.25393853 2.13059437 -11 1 C-9.65808594 0.67128906 -9.65808594 0.67128906 -8.2890625 0.3359375 C-2.25653595 -1.12826797 -2.25653595 -1.12826797 0 0 Z " fill="#87AE5C" transform="translate(80,89)"/>
</svg>
